<?xml version="1.0" standalone="no"?>
<!DOCTYPE svg PUBLIC "-//W3C//DTD SVG 20010904//EN"
 "http://www.w3.org/TR/2001/REC-SVG-20010904/DTD/svg10.dtd">
<svg version="1.0" xmlns="http://www.w3.org/2000/svg"
 width="524.000000pt" height="524.000000pt" viewBox="0 0 524.000000 524.000000"
 preserveAspectRatio="xMidYMid meet">
<metadata>
Created by potrace 1.11, written by Peter Selinger 2001-2013
</metadata>
<g transform="translate(0.000000,524.000000) scale(0.100000,-0.100000)"
fill="#000000" stroke="none">
<path d="M2153 4841 c-12 -6 -29 -21 -38 -35 -32 -49 2 -126 137 -308 47 -64
105 -154 128 -200 41 -80 42 -85 37 -158 -8 -115 -49 -199 -249 -505 -187
-286 -237 -476 -189 -710 7 -33 17 -64 22 -69 5 -6 9 -16 9 -23 0 -20 95 -206
121 -239 25 -31 212 -65 272 -50 15 3 38 22 53 42 26 33 27 38 15 71 -14 38
-43 82 -124 185 -75 97 -102 176 -101 303 0 64 7 122 18 160 24 82 87 208 149
299 29 41 88 128 133 193 127 185 154 261 154 422 -1 140 -39 310 -88 390 -77
126 -129 178 -217 216 -46 20 -208 30 -242 16z"/>
<path d="M1095 4799 c-22 -12 -52 -30 -67 -40 -27 -19 -27 -20 -10 -52 24 -45
91 -109 175 -166 86 -58 138 -111 163 -166 33 -70 19 -287 -25 -390 -30 -68
-82 -170 -120 -235 -59 -100 -181 -322 -181 -329 0 -3 -6 -17 -13 -31 -75
-146 -100 -362 -62 -522 51 -210 147 -314 333 -362 76 -19 102 -20 139 -4 51
22 73 48 73 89 0 47 -28 81 -129 158 -122 93 -166 190 -164 366 0 155 39 271
182 545 200 386 240 481 261 616 14 92 1 174 -41 260 -43 88 -144 195 -227
241 -61 34 -75 38 -157 41 -78 3 -95 0 -130 -19z"/>
<path d="M3265 4708 c-30 -17 -50 -40 -70 -81 -17 -36 -17 -36 14 -81 17 -25
64 -72 104 -104 83 -69 98 -84 125 -133 99 -178 57 -411 -132 -734 -20 -33
-39 -67 -43 -75 -4 -8 -31 -55 -61 -104 -145 -241 -204 -390 -204 -520 -1 -64
4 -90 21 -124 33 -65 87 -118 146 -147 65 -31 116 -31 175 -2 64 31 66 67 10
176 -62 122 -64 197 -7 356 25 71 72 152 200 347 143 218 180 302 201 468 11
81 10 120 0 215 -21 182 -55 273 -136 362 -133 148 -271 221 -343 181z"/>
<path d="M3984 2901 c-45 -12 -93 -48 -100 -77 -8 -30 13 -55 68 -86 44 -25
50 -54 16 -83 -159 -136 -396 -226 -733 -280 -140 -22 -150 -23 -315 -40 -960
-95 -1445 -95 -1920 1 -41 8 -91 19 -110 24 -96 25 -187 52 -202 61 -10 5 -23
9 -30 9 -7 0 -45 16 -85 37 -185 92 -191 206 -13 264 38 12 79 32 90 45 l21
21 -35 21 c-150 89 -399 4 -484 -165 -68 -134 -12 -243 170 -331 217 -104 444
-152 978 -204 180 -17 874 -17 1075 0 366 32 517 48 720 77 61 9 142 21 180
26 39 5 77 12 85 15 8 3 53 12 100 19 158 26 499 102 555 125 11 4 49 18 85
31 78 27 158 69 222 116 59 43 138 130 138 152 0 44 -90 130 -180 173 -100 47
-225 67 -296 49z"/>
<path d="M4720 2320 c-68 -12 -131 -43 -172 -84 -44 -42 -72 -92 -64 -111 8
-21 82 -37 176 -39 64 -1 93 -6 113 -19 26 -16 27 -22 27 -95 0 -61 -5 -88
-25 -131 -33 -70 -124 -158 -254 -245 -105 -70 -191 -144 -191 -163 0 -6 23
-21 52 -33 80 -34 179 -26 281 23 189 92 381 327 441 539 46 162 -9 295 -141
341 -60 21 -178 30 -243 17z"/>
<path d="M3993 2142 c-14 -17 -39 -60 -54 -97 -27 -61 -41 -115 -85 -310 -69
-306 -283 -591 -589 -782 -243 -152 -572 -232 -955 -233 -310 0 -654 62 -865
155 -198 88 -292 143 -411 242 -121 101 -209 210 -272 340 -53 109 -71 170
-77 260 -14 199 -42 295 -95 326 -40 24 -74 21 -109 -9 -60 -50 -93 -164 -94
-324 -3 -308 158 -600 472 -853 113 -92 342 -223 484 -278 29 -11 61 -23 72
-28 46 -20 115 -42 240 -76 62 -16 232 -49 345 -66 123 -18 421 -16 555 5 156
23 311 64 410 106 11 5 43 18 70 30 147 62 327 167 460 268 89 68 259 236 325
323 67 87 159 236 190 306 12 27 27 62 35 78 65 146 97 349 76 486 -16 109
-37 153 -74 157 -20 3 -34 -4 -54 -26z"/>
</g>
</svg>
